<?xml version="1.0" encoding="utf-8"?>
<!-- Generator: Adobe Illustrator 27.5.0, SVG Export Plug-In . SVG Version: 6.00 Build 0)  -->
<svg version="1.1" xmlns="http://www.w3.org/2000/svg" xmlns:xlink="http://www.w3.org/1999/xlink" x="0px" y="0px"
	 viewBox="0 0 500 500" style="enable-background:new 0 0 500 500;" xml:space="preserve">
<g id="Background_Complete">
	<g>
		<path style="fill:#E6E6E6;" d="M238.395,341.53H45.305c-3.15-0.005-5.7-2.56-5.7-5.71V64.39c0.027-3.13,2.57-5.655,5.7-5.66
			h193.09c3.153,0,5.71,2.556,5.71,5.71l0,0v271.38C244.105,338.974,241.548,341.53,238.395,341.53z M45.305,58.93
			c-3.012,0.006-5.45,2.448-5.45,5.46v271.43c0,3.012,2.438,5.454,5.45,5.46h193.09c3.013-0.005,5.454-2.447,5.46-5.46V64.39
			c-0.006-3.013-2.447-5.455-5.46-5.46H45.305z"/>
		<path style="fill:#E6E6E6;" d="M454.705,341.53h-193.1c-3.151-0.005-5.705-2.559-5.71-5.71V64.39
			c0.033-3.132,2.578-5.655,5.71-5.66h193.1c3.126,0.011,5.663,2.534,5.69,5.66v271.43
			C460.395,338.966,457.851,341.519,454.705,341.53z M261.605,58.93c-3.013,0.006-5.455,2.447-5.46,5.46v271.43
			c0.005,3.013,2.447,5.454,5.46,5.46h193.1c3.013-0.005,5.454-2.447,5.46-5.46V64.39c-0.006-3.013-2.447-5.455-5.46-5.46H261.605z"
			/>
	</g>
	<g>
		<rect x="53.79" y="392.21" style="fill:#E0E0E0;" width="41.21" height="0.25"/>
		<rect x="137.67" y="390.21" style="fill:#E0E0E0;" width="41.33" height="0.25"/>
		<rect x="222.78" y="390.21" style="fill:#E0E0E0;" width="10" height="0.25"/>
		<rect x="86.58" y="398.75" style="fill:#E0E0E0;" width="46.25" height="0.25"/>
		<rect x="271.2" y="392.08" style="fill:#E0E0E0;" width="21.6" height="0.25"/>
		<rect x="301.7" y="392.08" style="fill:#E0E0E0;" width="27.93" height="0.25"/>
		<rect x="401.89" y="396.31" style="fill:#E0E0E0;" width="62.44" height="0.25"/>
	</g>
	<rect y="382.4" style="fill:#E0E0E0;" width="500" height="0.25"/>
	<g>
		<path style="fill:#F0F0F0;" d="M169.817,288.992h19.436v-11.153c0-5.367-4.351-9.718-9.718-9.718l0,0
			c-5.367,0-9.718,4.351-9.718,9.718V288.992z"/>
		<g>
			<g>
				<g>
					<g>
						<circle style="fill:#FFFFFF;" cx="179.651" cy="278.355" r="8.199"/>
						<circle style="fill:#EBEBEB;" cx="179.767" cy="278.355" r="6.58"/>
					</g>
					<g>
						<g>
							<path style="fill:#FAFAFA;" d="M178.995,278.504c0,0.392,0.318,0.709,0.71,0.709s0.709-0.318,0.709-0.709
								c0-0.392-0.318-0.71-0.709-0.71S178.995,278.112,178.995,278.504z"/>
						</g>
						<g>
							<polygon style="fill:#FAFAFA;" points="179.786,278.765 182.796,275.932 182.504,275.621 179.777,278.188 174.889,273.869 
								174.606,274.189 							"/>
						</g>
					</g>
				</g>
			</g>
		</g>
	</g>
	<g>
		<g>
			<g>
				
					<ellipse transform="matrix(0.7071 -0.7071 0.7071 0.7071 -109.1076 113.5674)" style="fill:#F0F0F0;" cx="82.534" cy="188.488" rx="22.91" ry="22.91"/>
				<g>
					<g>
						<path style="fill:#FFFFFF;" d="M82.599,211.908c-12.916,0-23.425-10.509-23.425-23.425c0-12.917,10.509-23.426,23.425-23.426
							v1.031c-12.348,0-22.394,10.046-22.394,22.395c0,12.348,10.046,22.394,22.394,22.394V211.908z"/>
					</g>
					<g>
						<g>
							<g>
								<path style="fill:#FFFFFF;" d="M82.599,211.908v-1.031c12.348,0,22.395-10.046,22.395-22.394
									c0-12.349-10.047-22.395-22.395-22.395v-1.031c12.917,0,23.425,10.509,23.425,23.426
									C106.024,201.4,95.516,211.908,82.599,211.908z"/>
							</g>
							<g>
								<g>
									<path style="fill:#FFFFFF;" d="M94.57,188.488h-1.031c0-7.593-3.853-17.751-11.217-22.476l0.556-0.868
										C90.554,170.07,94.57,180.616,94.57,188.488z"/>
								</g>
								<g>
									<path style="fill:#FFFFFF;" d="M82.877,211.133l-0.556-0.868c7.365-4.725,11.217-14.883,11.217-22.476h1.031
										C94.57,195.662,90.554,206.208,82.877,211.133z"/>
								</g>
							</g>
							<g>
								<g>
									<path style="fill:#FFFFFF;" d="M71.66,188.483H70.63c0-7.872,4.016-18.418,11.691-23.344l0.558,0.868
										C75.513,170.732,71.66,180.891,71.66,188.483z"/>
								</g>
								<g>
									<path style="fill:#FFFFFF;" d="M82.32,211.128c-7.675-4.926-11.691-15.472-11.691-23.344h1.031
										c0,7.592,3.853,17.75,11.217,22.476L82.32,211.128z"/>
								</g>
							</g>
							<g>
								<rect x="82.084" y="165.573" style="fill:#FFFFFF;" width="1.031" height="45.82"/>
							</g>
						</g>
					</g>
					<g>
						<g>
							<rect x="63.208" y="175.764" style="fill:#FFFFFF;" width="38.784" height="1.031"/>
						</g>
						<g>
							<rect x="59.7" y="188.358" style="fill:#FFFFFF;" width="45.799" height="1.031"/>
						</g>
						<g>
							<rect x="63.72" y="200.941" style="fill:#FFFFFF;" width="37.759" height="1.031"/>
						</g>
					</g>
				</g>
			</g>
			<g>
				<g>
					<g>
						<g>
							
								<rect x="352.437" y="33.166" transform="matrix(-1.836970e-16 1 -1 -1.836970e-16 468.1131 -242.3288)" style="fill:#F5F5F5;" width="5.569" height="159.451"/>
							<g>
								<g>
									<path style="fill:#E0E0E0;" d="M317.989,115.676h-26.673v5.725v1.049v5.725h13.337v0c0-3.162,2.563-5.725,5.725-5.725
										h7.612V115.676z"/>
									<path style="fill:#F5F5F5;" d="M305.936,115.676h-19.442v12.499h6.105v0c0-3.162,2.563-5.725,5.725-5.725h7.612V115.676z"
										/>
								</g>
								<g>
									<path style="fill:#EBEBEB;" d="M392.453,115.676h26.673v5.725v1.049v5.725H405.79v0c0-3.162-2.563-5.725-5.725-5.725
										h-7.612V115.676z"/>
									<path style="fill:#F5F5F5;" d="M404.506,115.676h19.441v12.499h-6.105v0c0-3.162-2.563-5.725-5.725-5.725h-7.611V115.676z"
										/>
								</g>
							</g>
						</g>
					</g>
				</g>
				<g>
					<g>
						<g>
							<polygon style="fill:#E0E0E0;" points="375.484,99.129 384.289,83.951 382.941,83.951 373.528,99.129 							"/>
						</g>
						<g>
							<polygon style="fill:#E0E0E0;" points="337.329,99.069 328.63,83.891 329.979,83.891 339.286,99.069 							"/>
						</g>
						<polygon style="fill:#E0E0E0;" points="337.682,99.069 338.131,100.086 339.434,100.086 339.019,99.069 						"/>
						<polygon style="fill:#E0E0E0;" points="375.155,99.069 374.706,100.086 373.403,100.086 373.818,99.069 						"/>
					</g>
					<g>
						<g>
							<g>
								<rect x="335.425" y="106.042" style="fill:#E0E0E0;" width="5.413" height="3.371"/>
								<rect x="372.138" y="106.042" style="fill:#E0E0E0;" width="5.413" height="3.371"/>
							</g>
							<path style="fill:#EBEBEB;" d="M379.443,107.534l-11.76,1.273c-7.46,0.807-14.985,0.807-22.445,0l-11.76-1.273v-7.298
								l9.55-1.241c8.917-1.159,17.947-1.159,26.865,0l9.55,1.241V107.534z"/>
						</g>
						<g>
							<path style="fill:#FFFFFF;" d="M340.31,104.092c0,1.203-0.975,2.179-2.179,2.179c-1.203,0-2.179-0.975-2.179-2.179
								c0-1.203,0.975-2.178,2.179-2.178C339.334,101.914,340.31,102.889,340.31,104.092z"/>
							<circle style="fill:#E0E0E0;" cx="338.131" cy="104.11" r="1.303"/>
						</g>
						<g>
							<path style="fill:#FFFFFF;" d="M350.463,104.11c0,0.38-0.309,0.689-0.689,0.689c-0.38,0-0.689-0.309-0.689-0.689
								c0-0.38,0.309-0.689,0.689-0.689C350.155,103.421,350.463,103.729,350.463,104.11z"/>
							<path style="fill:#FFFFFF;" d="M352.918,104.11c0,0.38-0.309,0.689-0.689,0.689c-0.38,0-0.689-0.309-0.689-0.689
								c0-0.38,0.309-0.689,0.689-0.689C352.61,103.421,352.918,103.729,352.918,104.11z"/>
							<path style="fill:#FFFFFF;" d="M355.374,104.11c0,0.38-0.309,0.689-0.689,0.689s-0.689-0.309-0.689-0.689
								c0-0.38,0.308-0.689,0.689-0.689S355.374,103.729,355.374,104.11z"/>
							<path style="fill:#FFFFFF;" d="M357.829,104.11c0,0.38-0.309,0.689-0.689,0.689s-0.689-0.309-0.689-0.689
								c0-0.38,0.308-0.689,0.689-0.689S357.829,103.729,357.829,104.11z"/>
							<path style="fill:#FFFFFF;" d="M360.284,104.11c0,0.38-0.309,0.689-0.689,0.689c-0.38,0-0.689-0.309-0.689-0.689
								c0-0.38,0.308-0.689,0.689-0.689C359.975,103.421,360.284,103.729,360.284,104.11z"/>
							<path style="fill:#FFFFFF;" d="M362.739,104.11c0,0.38-0.309,0.689-0.689,0.689s-0.689-0.309-0.689-0.689
								c0-0.38,0.308-0.689,0.689-0.689S362.739,103.729,362.739,104.11z"/>
							<path style="fill:#FFFFFF;" d="M365.194,104.11c0,0.38-0.309,0.689-0.689,0.689c-0.38,0-0.689-0.309-0.689-0.689
								c0-0.38,0.308-0.689,0.689-0.689C364.886,103.421,365.194,103.729,365.194,104.11z"/>
						</g>
					</g>
				</g>
			</g>
			<g>
				<g>
					<path style="fill:#F5F5F5;" d="M133.463,131.761v6.04c3.895,0.311,7.44,1.855,10.247,4.244l4.27-4.27
						C144.068,134.307,139.02,132.092,133.463,131.761z"/>
				</g>
				<g>
					<path style="fill:#F0F0F0;" d="M130.548,173.821c-8.818-0.704-15.848-7.734-16.553-16.553h-6.04
						c0.725,12.148,10.446,21.868,22.593,22.593V173.821z"/>
				</g>
				<g>
					<path style="fill:#E0E0E0;" d="M113.995,154.353c0.705-8.818,7.735-15.848,16.554-16.552v-6.04
						c-12.147,0.725-21.867,10.446-22.593,22.593H113.995z"/>
				</g>
				<path style="fill:#E0E0E0;" d="M150.042,139.836l-4.27,4.27c2.684,3.154,4.308,7.239,4.308,11.705
					c0,9.491-7.317,17.267-16.616,18.01v6.04c12.63-0.754,22.641-11.231,22.641-24.051
					C156.104,149.681,153.812,144.089,150.042,139.836z"/>
			</g>
			<g>
				<g>
					<path style="fill:#E0E0E0;" d="M74.521,382.023h182.707c10.863,0,19.669-8.806,19.669-19.669v-70.909
						c0-10.863-8.806-19.669-19.669-19.669H74.521c-10.863,0-19.669,8.806-19.669,19.669v70.909
						C54.851,373.217,63.658,382.023,74.521,382.023z"/>
					<path style="fill:#F5F5F5;" d="M86.221,382.837h182.707c10.863,0,19.669-8.806,19.669-19.669v-70.909
						c0-10.863-8.806-19.669-19.669-19.669H86.221c-10.863,0-19.669,8.806-19.669,19.669v70.909
						C66.552,374.031,75.358,382.837,86.221,382.837z"/>
					<path style="fill:#E0E0E0;" d="M76.73,324.116h200.384v-27.393c0-7.587-6.151-13.738-13.738-13.738H90.468
						c-7.587,0-13.738,6.151-13.738,13.738V324.116z"/>
					<path style="fill:#E0E0E0;" d="M90.468,370.813h172.908c7.587,0,13.738-6.151,13.738-13.738v-27.393H76.73v27.393
						C76.73,364.662,82.88,370.813,90.468,370.813z"/>
					<g>
						<rect x="129.951" y="290.947" style="fill:#E6E6E6;" width="28.4" height="33.441"/>
						<rect x="158.35" y="290.947" style="fill:#F5F5F5;" width="7.274" height="33.441"/>
						<rect x="122.504" y="285.79" style="fill:#E6E6E6;" width="21.334" height="38.598"/>
						<rect x="143.828" y="285.79" style="fill:#F5F5F5;" width="6.168" height="38.598"/>
						<rect x="119.565" y="290.947" style="fill:#EBEBEB;" width="17.987" height="33.441"/>
						<rect x="137.552" y="290.947" style="fill:#F5F5F5;" width="4.109" height="33.441"/>
						<rect x="99.238" y="296.606" style="fill:#E6E6E6;" width="23.592" height="27.782"/>
						<rect x="122.83" y="296.606" style="fill:#F5F5F5;" width="6.041" height="27.782"/>
						<rect x="93.052" y="292.322" style="fill:#E6E6E6;" width="17.724" height="32.066"/>
						<rect x="110.766" y="292.322" style="fill:#F5F5F5;" width="5.125" height="32.066"/>
						<rect x="88.335" y="296.606" style="fill:#E6E6E6;" width="17.216" height="27.782"/>
						<rect x="105.56" y="296.606" style="fill:#F0F0F0;" width="3.41" height="27.782"/>
					</g>
					<g>
						<rect x="218.328" y="336.106" style="fill:#E6E6E6;" width="28.4" height="33.441"/>
						<rect x="246.728" y="336.106" style="fill:#F5F5F5;" width="7.275" height="33.441"/>
						<rect x="210.881" y="330.949" style="fill:#E6E6E6;" width="21.334" height="38.598"/>
						<rect x="232.206" y="330.949" style="fill:#F5F5F5;" width="6.168" height="38.598"/>
						<rect x="121.441" y="336.106" style="fill:#E6E6E6;" width="28.4" height="33.441"/>
						<rect x="149.841" y="336.106" style="fill:#F5F5F5;" width="7.275" height="33.441"/>
						<rect x="113.995" y="330.949" style="fill:#E6E6E6;" width="21.334" height="38.598"/>
						<rect x="135.319" y="330.949" style="fill:#F5F5F5;" width="6.168" height="38.598"/>
						<rect x="207.942" y="336.106" style="fill:#EBEBEB;" width="17.987" height="33.441"/>
						<rect x="225.929" y="336.106" style="fill:#F5F5F5;" width="4.109" height="33.441"/>
						<rect x="187.615" y="341.764" style="fill:#E6E6E6;" width="23.592" height="27.782"/>
						<rect x="211.208" y="341.764" style="fill:#F5F5F5;" width="6.041" height="27.782"/>
						<rect x="181.429" y="337.48" style="fill:#E6E6E6;" width="17.724" height="32.066"/>
						<rect x="199.144" y="337.48" style="fill:#F5F5F5;" width="5.125" height="32.066"/>
						<rect x="176.713" y="341.764" style="fill:#E6E6E6;" width="17.216" height="27.782"/>
						<rect x="193.938" y="341.764" style="fill:#F0F0F0;" width="3.41" height="27.782"/>
					</g>
				</g>
			</g>
		</g>
		<g>
			<g>
				<path style="fill:#F5F5F5;" d="M443.89,256.929L443.89,256.929H332.383l0,0c0,5.583,3.222,10.167,7.312,10.418
					c11.983,0.737,30.418,3.323,36.264,12.366c10.897,16.856,9.842,76.066-3.211,89.78c-4.093,4.3-16.024,12.837-16.024,12.837
					h62.826c0,0-11.149-8.71-15.023-12.837c-12.979-13.826-13.357-73.002-2.409-89.78c5.617-8.609,22.896-11.389,34.49-12.266
					C440.697,267.137,443.89,262.514,443.89,256.929z"/>
				<path style="fill:#E6E6E6;" d="M346.195,267.899c11.326,1.238,24.9,4.291,29.763,11.814c1.439,2.226,2.664,5.207,3.686,8.709
					h18.728c1.049-3.505,2.295-6.487,3.745-8.709c4.882-7.481,18.568-10.56,29.679-11.814H346.195z"/>
			</g>
			<g>
				<polygon style="fill:#EBEBEB;" points="396.391,257.002 394.875,233.366 416.855,233.366 418.371,257.002 				"/>
				<polygon style="fill:#E0E0E0;" points="396.391,257.002 394.875,233.366 393.691,233.366 395.207,257.002 				"/>
				<polygon style="fill:#F0F0F0;" points="398.477,254.593 397.27,235.775 414.768,235.775 415.976,254.593 				"/>
				<polygon style="fill:#FAFAFA;" points="399.819,253.044 398.81,237.325 413.427,237.325 414.436,253.044 				"/>
			</g>
			<g>
				<g>
					<polygon style="fill:#E6E6E6;" points="389.261,256.929 367.181,256.929 369.631,218.741 391.711,218.741 					"/>
					<polygon style="fill:#E0E0E0;" points="389.261,256.929 390.315,256.929 392.765,218.741 391.711,218.741 					"/>
					<polygon style="fill:#F0F0F0;" points="387.26,253.035 369.682,253.035 371.632,222.634 389.21,222.634 					"/>
					<polygon style="fill:#FAFAFA;" points="385.973,250.533 371.29,250.533 372.919,225.137 387.602,225.137 					"/>
				</g>
				<path style="fill:#EBEBEB;" d="M378.557,236.563L378.557,236.563c0.998,1.361,2.615,1.361,3.612,0l0,0
					c0.997-1.36,0.997-3.566,0-4.926l0,0c-0.997-1.36-2.615-1.36-3.612,0l0,0C377.559,232.997,377.559,235.202,378.557,236.563z"/>
				<path style="fill:#F0F0F0;" d="M379.638,240.83L379.638,240.83c-0.73-0.996-1.915-0.996-2.645,0l0,0
					c-1.178,1.607-0.344,4.354,1.323,4.354l0,0C379.981,245.184,380.816,242.436,379.638,240.83z"/>
			</g>
		</g>
	</g>
</g>
<g id="Background_Simple_1_">
	<g id="Layer_8">
	</g>
	<g>
		<path style="fill:#407BFF;" d="M104.442,342.546c3.582,9.68,12.586,17.231,22.584,19.798c15.046,3.863,30.024-4.996,45.014-9.069
			c26.635-7.237,54.731,0.783,81.344,8.101c26.613,7.318,55.468,13.883,81.249,4.025c22.124-8.46,38.361-27.91,49.573-48.774
			c21.307-39.647,27.593-85.519,30.714-130.42c1.393-20.034,2.159-40.643-4.166-59.704c-6.325-19.061-21.213-36.494-40.925-40.333
			c-18.924-3.685-38.057,5.573-53.348,17.315c-15.291,11.743-28.547,26.264-45.245,35.901
			c-24.321,14.036-53.996,16.38-81.742,12.053c-17.19-2.681-45.834-35.252-74.991-23.213
			C83.46,141.045,69.938,249.298,104.442,342.546z"/>
		<path style="opacity:0.9;fill:#FFFFFF;" d="M104.442,342.546c3.582,9.68,12.586,17.231,22.584,19.798
			c15.046,3.863,30.024-4.996,45.014-9.069c26.635-7.237,54.731,0.783,81.344,8.101c26.613,7.318,55.468,13.883,81.249,4.025
			c22.124-8.46,38.361-27.91,49.573-48.774c21.307-39.647,27.593-85.519,30.714-130.42c1.393-20.034,2.159-40.643-4.166-59.704
			c-6.325-19.061-21.213-36.494-40.925-40.333c-18.924-3.685-38.057,5.573-53.348,17.315
			c-15.291,11.743-28.547,26.264-45.245,35.901c-24.321,14.036-53.996,16.38-81.742,12.053
			c-17.19-2.681-45.834-35.252-74.991-23.213C83.46,141.045,69.938,249.298,104.442,342.546z"/>
	</g>
</g>
<g id="Shadows_1_">
	<g id="Shadow--inject-214">
		<ellipse id="path--inject-214" style="fill:#F5F5F5;" cx="250" cy="410.07" rx="193.89" ry="11.32"/>
	</g>
</g>
<g id="Plants">
	<g>
		<g>
			<g>
				<path style="fill:#263238;" d="M391.114,335.668c-10.005,7.715-12.898,24.601-13.4,36.505c-0.046,1.085-1.739,1.091-1.693,0
					c0.532-12.608,3.401-29.61,14.238-37.967C391.122,333.542,391.966,335.012,391.114,335.668L391.114,335.668z"/>
			</g>
			<g>
				<path style="fill:#263238;" d="M367.89,327.034c2.551-0.294,4.699,2.314,5.808,4.23c5.756,9.95,3.528,24.967,2.439,35.643
					c-0.109,1.073-1.803,1.085-1.693,0c1.06-10.391,2.99-23.927-1.704-33.803c-0.806-1.695-2.528-4.646-4.85-4.378
					C366.81,328.851,366.819,327.158,367.89,327.034L367.89,327.034z"/>
			</g>
			<g>
				<path style="fill:#263238;" d="M361.689,340.703c10.703-2.642,12.038,21.086,12.355,26.204c0.067,1.088-1.626,1.084-1.693,0
					c-0.428-6.923-0.77-16.843-5.778-22.398c-1.012-1.123-2.771-2.584-4.434-2.174C361.082,342.596,360.631,340.965,361.689,340.703
					L361.689,340.703z"/>
			</g>
			<g>
				<path style="fill:#263238;" d="M393.407,352.217c-8.847-6.553-11.727,10.667-12.216,15.63c-0.106,1.074-1.8,1.085-1.693,0
					c0.556-5.631,1.411-15.833,7.917-18.199c2.23-0.811,4.944-0.301,6.846,1.108C395.126,351.397,394.283,352.867,393.407,352.217
					L393.407,352.217z"/>
			</g>
			<g>
				<path style="fill:#263238;" d="M358.213,355.325c1.329-1.344,3.371-2.237,5.266-1.919c5.397,0.906,6.895,9.049,7.714,13.276
					c0.206,1.064-1.425,1.52-1.632,0.45c-0.706-3.647-4.107-16.724-10.151-10.61C358.643,357.298,357.446,356.101,358.213,355.325
					L358.213,355.325z"/>
			</g>
			<path style="fill:#263238;" d="M390.083,410.823h-25.595c-4.49-3.813-7.348-9.484-7.348-15.84c0-7.258,4.079-29.033,4.079-29.033
				h32.133c0,0,4.079,21.775,4.079,29.033C397.431,401.339,394.573,407.01,390.083,410.823z"/>
			<path style="fill:#407BFF;" d="M394.155,360.567c-7.719,0-15.271-3.129-16.87-6.988c-1.599-3.859,3.363-6.988,11.081-6.988
				c2.549,0,5.074,0.347,7.378,0.943c1.811-0.596,4.049-0.943,6.598-0.943c7.719,0,15.271,3.129,16.87,6.988
				c1.599,3.859-3.362,6.988-11.081,6.988H394.155z"/>
			<path style="opacity:0.1;" d="M394.155,360.567c-7.719,0-15.271-3.129-16.87-6.988c-1.599-3.859,3.363-6.988,11.081-6.988
				c2.549,0,5.074,0.347,7.378,0.943c1.811-0.596,4.049-0.943,6.598-0.943c7.719,0,15.271,3.129,16.87,6.988
				c1.599,3.859-3.362,6.988-11.081,6.988H394.155z"/>
			<path style="fill:#407BFF;" d="M343.794,345.608c-6.313,0-8.872-2.559-5.716-5.716c3.157-3.157,10.834-5.716,17.147-5.716
				c2.085,0,3.75,0.283,4.945,0.771c2.17-0.487,4.402-0.771,6.487-0.771c6.314,0,8.872,2.559,5.716,5.716
				c-3.157,3.157-10.833,5.716-17.147,5.716H343.794z"/>
			<path style="fill:#407BFF;" d="M401.857,339.892c-7.943,0-17.602-3.219-21.573-7.191c-3.971-3.971-0.752-7.191,7.191-7.191
				c2.623,0,5.431,0.357,8.161,0.97c1.504-0.613,3.598-0.97,6.221-0.97c7.943,0,17.602,3.22,21.573,7.191
				c3.971,3.972,0.752,7.191-7.191,7.191H401.857z"/>
			<path style="opacity:0.2;fill:#FFFFFF;" d="M401.857,339.892c-7.943,0-17.602-3.219-21.573-7.191
				c-3.971-3.971-0.752-7.191,7.191-7.191c2.623,0,5.431,0.357,8.161,0.97c1.504-0.613,3.598-0.97,6.221-0.97
				c7.943,0,17.602,3.22,21.573,7.191c3.971,3.972,0.752,7.191-7.191,7.191H401.857z"/>
			<path style="fill:#407BFF;" d="M357.699,330.607c-3.971,0-6.524-1.61-5.702-3.596c0.823-1.986,4.709-3.595,8.68-3.595
				c1.311,0,2.463,0.178,3.395,0.485c1.186-0.307,2.485-0.485,3.797-0.485c3.971,0,6.524,1.61,5.702,3.595
				c-0.823,1.986-4.709,3.596-8.68,3.596H357.699z"/>
			<path style="opacity:0.3;fill:#FFFFFF;" d="M357.699,330.607c-3.971,0-6.524-1.61-5.702-3.596
				c0.823-1.986,4.709-3.595,8.68-3.595c1.311,0,2.463,0.178,3.395,0.485c1.186-0.307,2.485-0.485,3.797-0.485
				c3.971,0,6.524,1.61,5.702,3.595c-0.823,1.986-4.709,3.596-8.68,3.596H357.699z"/>
			<path style="fill:#407BFF;" d="M353.119,359.374c-3.971,0-7.858-1.61-8.68-3.595c-0.823-1.986,1.73-3.596,5.702-3.596
				c1.311,0,2.611,0.178,3.797,0.485c0.932-0.307,2.083-0.485,3.395-0.485c3.972,0,7.858,1.61,8.68,3.596
				c0.823,1.986-1.73,3.595-5.702,3.595H353.119z"/>
			<path style="opacity:0.2;" d="M353.119,359.374c-3.971,0-7.858-1.61-8.68-3.595c-0.823-1.986,1.73-3.596,5.702-3.596
				c1.311,0,2.611,0.178,3.797,0.485c0.932-0.307,2.083-0.485,3.395-0.485c3.972,0,7.858,1.61,8.68,3.596
				c0.823,1.986-1.73,3.595-5.702,3.595H353.119z"/>
			<path style="fill:#407BFF;" d="M360.491,369.982c0.432-2.447,0.728-4.032,0.728-4.032h32.133c0,0,0.296,1.585,0.728,4.032
				H360.491z"/>
		</g>
		<path style="fill:#FAFAFA;" d="M359.094,336.337c0,0-8.815,2.938-11.607,7.787C347.487,344.124,347.928,337.071,359.094,336.337z"
			/>
		<path style="fill:#FAFAFA;" d="M363.24,324.807c0,0-2.295,1.277-3.69,3.187C359.55,327.994,360.245,325.22,363.24,324.807z"/>
		<path style="fill:#FAFAFA;" d="M397.431,327.994c0,0,9.552,3.495,15.428,10.106C412.859,338.1,408.302,328.907,397.431,327.994z"
			/>
		<path style="fill:#E6E6E6;" d="M397.431,349.262c0,0,5.732,2.061,9.992,7.791C407.423,357.053,405.657,350.432,397.431,349.262z"
			/>
		<path style="fill:#FAFAFA;" d="M354.091,354.11c0,0,2.204,0.959,2.498,3.824C356.588,357.934,354.532,356.163,354.091,354.11z"/>
	</g>
	<g>
		<g>
			<g>
				<g>
					<path style="fill:#407BFF;" d="M107.549,221.004c0.667-1.314,2.19-2.074,3.574-1.785c1.384,0.29,2.518,1.605,2.661,3.089
						c0.979-0.732,2.379-0.769,3.391-0.089c1.012,0.68,1.576,2.035,1.365,3.283c1.104-0.891,2.913-0.523,3.625,0.737
						c0.712,1.261,0.159,3.119-1.107,3.723c0.862,0.062,1.601,0.922,1.578,1.834c-0.023,0.913-0.804,1.73-1.668,1.744
						c0.873,0.02,1.676,0.788,1.782,1.704c0.106,0.916-0.499,1.866-1.343,2.107c0.887,0.394,1.111,1.852,0.388,2.522
						c-0.723,0.671-2.061,0.246-2.315-0.735c-0.135,0.283-0.553,0.349-0.761,0.12c-0.208-0.229-0.128-0.668,0.146-0.799
						c-0.399,0.563-1.42,0.302-1.531-0.392c0.3,1.607-1.617,3.118-2.988,2.356c0.396,0.671-0.163,1.608-0.885,1.817
						c-0.722,0.209-1.483-0.086-2.16-0.421c-0.678-0.335-1.37-0.725-2.119-0.715c-0.656,0.009-1.267,0.326-1.895,0.528
						c-1.994,0.639-4.301,0.031-5.776-1.525c-1.037,1.392-3.493,1.017-4.116-0.627c-0.16,0.789-0.858,1.42-1.62,1.465
						c-0.762,0.045-1.522-0.5-1.764-1.265c-0.016,0.352-0.031,0.703-0.047,1.055c-1.437,0.34-2.857-1.515-2.241-2.93
						c-1.026,0.019-1.997-0.867-2.129-1.942c-0.132-1.076,0.592-2.195,1.588-2.454c-1.691-0.475-2.981-2.228-2.999-4.077
						c-0.019-1.849,1.236-3.631,2.917-4.144c0.663-0.202,1.441-0.197,1.97,0.27c0.529,0.467,0.6,1.494,0.009,1.87
						c-0.508-1.658,0.246-3.644,1.697-4.472c1.451-0.827,3.436-0.402,4.467,0.958c-0.503-0.705-0.512-1.757-0.023-2.472
						c0.49-0.715,1.439-1.034,2.229-0.749c0.197-1.139,1.331-1.999,2.415-1.831c1.084,0.168,1.937,1.336,1.816,2.487
						c0.125-0.961,1.619-1.243,2.05-0.386C108.336,220.691,107.549,221.004,107.549,221.004z"/>
				</g>
			</g>
			<g style="opacity:0.4;">
				<g>
					<path style="fill:#FAFAFA;" d="M107.147,231.705c0.443-0.308,1.003-0.474,1.533-0.368c0.529,0.106,1.008,0.515,1.117,1.044
						c0.109,0.529-0.22,1.134-0.745,1.261c-0.638,0.154-1.278-0.372-1.928-0.28c-0.232,0.033-0.446,0.143-0.672,0.203
						c-0.935,0.25-1.861-0.361-2.636-0.939c-0.273-0.203-0.552-0.413-0.734-0.701c-0.182-0.287-0.25-0.673-0.078-0.967
						c0.239-0.41,0.805-0.47,1.276-0.416c0.945,0.108,1.857,0.489,2.598,1.086c-0.024-0.148-0.049-0.296-0.073-0.444
						L107.147,231.705z"/>
				</g>
				<g>
					<path style="fill:#FAFAFA;" d="M93.564,230.903c0.254-0.178,0.515-0.359,0.816-0.43c0.301-0.071,0.656-0.006,0.846,0.238
						c0.261,0.334,0.096,0.857-0.236,1.122c-0.331,0.265-0.772,0.338-1.191,0.403c-0.431,0.067-0.974,0.082-1.187-0.298
						c-0.155-0.277-0.03-0.643,0.201-0.861c0.232-0.217,0.545-0.32,0.847-0.418L93.564,230.903z"/>
				</g>
				<g>
					<path style="fill:#FAFAFA;" d="M115.022,223.838c0.865,0.362,1.533,1.162,1.735,2.077c0.061,0.276,0.052,0.624-0.189,0.771
						c-0.172,0.104-0.391,0.061-0.586,0.015c-0.829-0.197-1.658-0.394-2.487-0.59c0.397,0.153,0.803,0.311,1.12,0.595
						c0.317,0.284,0.53,0.724,0.426,1.136c-0.122,0.484-0.653,0.782-1.152,0.775c-0.499-0.007-0.964-0.255-1.37-0.546
						c-0.433-0.311-0.856-0.741-0.865-1.274c-0.008-0.533,0.663-1.027,1.072-0.685c-0.948-0.258-1.853-0.67-2.669-1.215
						c-0.295-0.198-0.586-0.42-0.772-0.722c-0.186-0.303-0.25-0.703-0.078-1.014c0.85-1.544,1.924,0.721,2.447,0.923
						C112.644,224.464,113.763,223.312,115.022,223.838z"/>
					<path style="fill:#FAFAFA;" d="M118.887,230.429c0.088,0.302,0.027,0.666-0.218,0.862c-0.246,0.196-0.681,0.13-0.794-0.163
						c0.555,0.173,1.148,0.373,1.494,0.84c0.346,0.467,0.26,1.285-0.292,1.465c-0.345,0.113-0.713-0.057-1.032-0.231
						c-0.901-0.493-1.761-1.059-2.569-1.693c0.247,0.57-0.347,1.216-0.966,1.269c-0.618,0.053-1.196-0.281-1.727-0.604
						c-0.651-0.395-1.397-0.999-1.226-1.741c0.149-0.646,0.975-0.932,1.61-0.742c0.635,0.189,1.113,0.702,1.557,1.193
						c-0.349-0.508,0.147-1.262,0.757-1.345c0.593-0.08,1.185,0.281,1.555,0.718c-0.691-0.379-0.846-1.368,0.08-1.483
						C117.719,228.7,118.741,229.927,118.887,230.429z"/>
					<path style="fill:#FAFAFA;" d="M99.91,228.209c0.522-0.195,1.176,0.145,1.317,0.684c0.141,0.54-0.264,1.156-0.816,1.24
						c0.405,0.035,0.793,0.237,1.054,0.549c0.145,0.174,0.254,0.396,0.222,0.62c-0.049,0.335-0.405,0.554-0.743,0.567
						c-0.338,0.012-0.66-0.131-0.968-0.271c0.334,0.031,0.687,0.07,0.952,0.275c0.265,0.205,0.38,0.641,0.142,0.877
						c-0.199,0.198-0.526,0.165-0.796,0.089c-0.606-0.17-1.17-0.487-1.629-0.917c-0.345,0.382-0.856,0.658-1.364,0.575
						c-0.508-0.083-0.939-0.624-0.78-1.113c0.113-0.349,0.479-0.569,0.843-0.613c0.365-0.044,0.73,0.056,1.079,0.169
						c-0.357-0.254-0.737-0.537-0.867-0.956c-0.131-0.418,0.152-0.98,0.59-0.947c0.492,0.038,0.743,0.708,1.131,0.949
						C99.757,229.536,98.86,228.601,99.91,228.209z"/>
					<g>
						<path style="fill:#FAFAFA;" d="M108.77,226.163c0.559,0.379,0.753,1.126,0.714,1.8c-0.043,0.745-0.381,1.54-1.065,1.839
							c-0.899,0.393-2.022-0.355-2.187-1.322c-0.165-0.967,0.47-1.951,1.34-2.403C107.573,226.078,108.211,225.785,108.77,226.163z"
							/>
					</g>
					<g>
						<path style="fill:#FAFAFA;" d="M102.494,225.36c-0.077,0.067-0.154,0.133-0.231,0.2c0.381-0.483,1.186-0.546,1.639-0.129
							c0.452,0.417,0.455,1.224,0.006,1.644c-0.45,0.42-1.255,0.362-1.64-0.118c-0.649,0.301-1.505,0.184-1.961-0.367
							c-0.456-0.551-0.353-1.511,0.269-1.864c0.622-0.353,1.569,0.177,1.503,0.889c0.09-0.1,0.18-0.201,0.27-0.301L102.494,225.36z"
							/>
					</g>
					<g>
						<path style="fill:#FAFAFA;" d="M95.566,226.479c0.444,0.437,0.906,0.904,1.069,1.506c0.163,0.602-0.106,1.368-0.71,1.521
							c-0.6,0.153-1.17-0.342-1.512-0.859c-0.309-0.466-0.545-1.047-0.367-1.577c0.178-0.53,0.942-0.844,1.324-0.436L95.566,226.479
							z"/>
					</g>
					<path style="fill:#FAFAFA;" d="M105.549,222.843c0.227-0.505,0.944-0.681,1.413-0.389c0.47,0.292,0.643,0.951,0.438,1.464
						c-0.205,0.514-0.732,0.862-1.282,0.922c-0.681,0.074-1.486-0.476-1.333-1.143c-0.294,0.387-0.821,0.54-1.304,0.493
						c-0.483-0.048-0.932-0.267-1.353-0.509c-0.572-0.329-1.181-0.838-1.121-1.495c0.048-0.523,0.554-0.926,1.078-0.975
						c0.523-0.049,1.039,0.194,1.438,0.536c0.314,0.268,0.575,0.599,0.915,0.834c0.34,0.235,0.802,0.361,1.165,0.165
						L105.549,222.843z"/>
				</g>
			</g>
		</g>
		<g>
			<polygon style="fill:#407BFF;" points="97.024,253.726 114.19,253.726 115.871,236.425 95.343,236.425 			"/>
			<polygon style="opacity:0.3;" points="97.024,253.726 114.19,253.726 115.871,236.425 95.343,236.425 			"/>
			<polygon style="fill:#FAFAFA;" points="94.014,237.318 117.371,237.318 117.791,235.016 93.594,235.016 			"/>
		</g>
	</g>
</g>
<g id="Desk_1_">
	<g>
		<g>
			<g>
				<path style="fill:#263238;" d="M123.309,264.582h7.524l0.217,144.058c0.002,1.51-1.222,2.736-2.732,2.736l0,0
					c-1.494,0-2.711-1.199-2.732-2.693L123.309,264.582z"/>
				<path style="opacity:0.2;fill:#FFFFFF;" d="M123.309,264.582h7.524l0.217,144.058c0.002,1.51-1.222,2.736-2.732,2.736l0,0
					c-1.494,0-2.711-1.199-2.732-2.693L123.309,264.582z"/>
			</g>
			<g>
				<path style="fill:#263238;" d="M82.183,264.582h7.524l0.217,144.058c0.002,1.51-1.222,2.736-2.732,2.736l0,0
					c-1.494,0-2.711-1.199-2.732-2.693L82.183,264.582z"/>
				<path style="opacity:0.2;fill:#FFFFFF;" d="M82.183,264.582h7.524l0.217,144.058c0.002,1.51-1.222,2.736-2.732,2.736l0,0
					c-1.494,0-2.711-1.199-2.732-2.693L82.183,264.582z"/>
			</g>
			<g>
				<path style="fill:#263238;" d="M302.192,264.582h7.524l0.217,144.058c0.002,1.51-1.222,2.736-2.732,2.736l0,0
					c-1.494,0-2.711-1.199-2.732-2.693L302.192,264.582z"/>
				<path style="opacity:0.2;fill:#FFFFFF;" d="M302.192,264.582h7.524l0.217,144.058c0.002,1.51-1.222,2.736-2.732,2.736l0,0
					c-1.494,0-2.711-1.199-2.732-2.693L302.192,264.582z"/>
			</g>
			<g>
				<path style="fill:#263238;" d="M261.066,264.582h7.524l0.217,144.058c0.002,1.51-1.222,2.736-2.732,2.736l0,0
					c-1.494,0-2.711-1.199-2.732-2.693L261.066,264.582z"/>
				<path style="opacity:0.2;fill:#FFFFFF;" d="M261.066,264.582h7.524l0.217,144.058c0.002,1.51-1.222,2.736-2.732,2.736l0,0
					c-1.494,0-2.711-1.199-2.732-2.693L261.066,264.582z"/>
			</g>
			<polygon style="fill:#407BFF;" points="82.483,291.582 309.008,289.885 309.008,264.582 82.431,264.582 			"/>
			<polygon style="opacity:0.3;" points="123.309,264.774 123.731,291.259 82.483,291.582 82.431,264.582 			"/>
		</g>
		<path style="fill:#263238;" d="M317.834,258.507L317.834,258.507c-0.005-3.408-1.271-6.169-2.834-6.179H79.01
			c-1.563,0.01-2.829,2.771-2.834,6.179l0,0c0.005,3.408,1.271,6.168,2.834,6.178h235.989
			C316.563,264.675,317.829,261.915,317.834,258.507z"/>
		<path style="opacity:0.1;fill:#FFFFFF;" d="M317.834,258.507L317.834,258.507c-0.005-3.408-1.271-6.169-2.834-6.179H79.01
			c-1.563,0.01-2.829,2.771-2.834,6.179l0,0c0.005,3.408,1.271,6.168,2.834,6.178h235.989
			C316.563,264.675,317.829,261.915,317.834,258.507z"/>
		<path style="opacity:0.3;" d="M137.088,258.507L137.088,258.507c-0.005-3.408-1.271-6.169-2.834-6.179H79.01
			c-1.563,0.01-2.829,2.771-2.834,6.179l0,0c0.005,3.408,1.271,6.168,2.834,6.178h55.244
			C135.817,264.675,137.084,261.915,137.088,258.507z"/>
	</g>
</g>
<g id="Speech_bubble">
	<g>
		<g>
			<g>
				<g>
					<path style="fill:#407BFF;" d="M231.085,135.575c-1.507,0-2.733-1.226-2.733-2.733v-6.732h-1.321
						c-1.935,0-3.51-1.575-3.51-3.51V90.731c0.009-1.927,1.576-3.487,3.497-3.487c0.005,0,0.011,0,0.016,0h49.729
						c1.927,0,3.495,1.568,3.495,3.495V122.6c0,1.936-1.575,3.51-3.51,3.51h-32.498l-11.524,8.911
						C232.252,135.379,231.671,135.575,231.085,135.575z M227.019,88.243c-1.373,0-2.493,1.114-2.499,2.49V122.6
						c0,1.384,1.126,2.51,2.51,2.51h2.321v7.732c0,0.956,0.777,1.733,1.733,1.733c0.37,0,0.736-0.124,1.031-0.348l11.79-9.117h32.84
						c1.384,0,2.51-1.126,2.51-2.51V90.738c0-1.376-1.119-2.495-2.495-2.495H227.03C227.027,88.243,227.023,88.243,227.019,88.243z"
						/>
				</g>
			</g>
			<g>
				<rect x="242.976" y="83.259" style="fill:#407BFF;" width="6.226" height="0.762"/>
				<path style="fill:#407BFF;" d="M220.076,92.236h-0.762v-3.757c0.004-2.888,2.347-5.228,5.235-5.228h13.892v0.762H224.55
					c-2.468,0-4.469,1.998-4.473,4.466V92.236z"/>
			</g>
		</g>
		<g>
			<g>
				<circle style="fill:#407BFF;" cx="240.646" cy="106.11" r="3.303"/>
			</g>
			<g>
				<path style="fill:#407BFF;" d="M255.078,106.11c0,1.824-1.479,3.303-3.303,3.303c-1.824,0-3.303-1.479-3.303-3.303
					c0-1.824,1.479-3.303,3.303-3.303C253.599,102.807,255.078,104.285,255.078,106.11z"/>
			</g>
			<g>
				<circle style="fill:#407BFF;" cx="262.903" cy="106.11" r="3.303"/>
			</g>
		</g>
	</g>
</g>
<g id="Character_1">
	<g>
		<g>
			<g>
				<g>
					<g>
						<g>
							<path style="fill:#407BFF;" d="M141.955,186.465l3.972-0.182l5.575,61.57h-4.216c-2.106-0.2-2.598-2.559-3.181-7.016
								l-3.901-42.984C139.291,187.659,141.033,186.465,141.955,186.465z"/>
							<path style="opacity:0.3;" d="M141.955,186.465l3.972-0.182l5.575,61.57h-4.216c-2.106-0.2-2.598-2.559-3.181-7.016
								l-3.901-42.984C139.291,187.659,141.033,186.465,141.955,186.465z"/>
							<g>
								<path style="fill:#407BFF;" d="M148.29,247.854h83.437c0.923,0,1.591-0.864,1.493-1.929L228,188.212
									c-0.098-1.065-0.926-1.929-1.848-1.929h-83.437c-0.922,0-1.591,0.864-1.493,1.929l5.22,57.713
									C146.54,246.99,147.367,247.854,148.29,247.854z"/>
							</g>
						</g>
						<g>
							<polygon style="fill:#407BFF;" points="151.489,240.56 227.27,240.56 223.067,192.521 147.286,192.521 							"/>
							<path style="fill:#263238;" d="M152.531,244.32h74.677c2.118,0,3.686-1.717,3.5-3.836l-4.177-47.74
								c-0.185-2.119-2.053-3.836-4.172-3.836h-74.677c-2.118,0-3.686,1.717-3.5,3.836l4.177,47.74
								C148.545,242.603,150.413,244.32,152.531,244.32z"/>
							<g>
								<polygon style="fill:#407BFF;" points="151.489,240.56 227.27,240.56 223.067,192.521 147.286,192.521 								"/>
								<polygon style="opacity:0.4;fill:#FFFFFF;" points="151.489,240.56 227.27,240.56 223.067,192.521 147.286,192.521 								
									"/>
							</g>
							<g>
								<polygon style="opacity:0.1;fill:#FFFFFF;enable-background:new    ;" points="173.293,188.934 158.491,244.296 
									163.47,244.296 178.109,188.934 								"/>
								<polygon style="opacity:0.1;fill:#FFFFFF;enable-background:new    ;" points="180.978,188.934 166.175,244.296 
									176.052,244.296 190.691,188.934 								"/>
							</g>
						</g>
					</g>
				</g>
				<g>
					<g>
						<path style="fill:#407BFF;" d="M158.212,206.849c0.26,2.121-1.249,3.841-3.37,3.841c-2.121,0-4.052-1.72-4.312-3.841
							c-0.26-2.121,1.249-3.841,3.37-3.841C156.021,203.008,157.952,204.728,158.212,206.849z"/>
						<path style="opacity:0.3;" d="M158.212,206.849c0.26,2.121-1.249,3.841-3.37,3.841c-2.121,0-4.052-1.72-4.312-3.841
							c-0.26-2.121,1.249-3.841,3.37-3.841C156.021,203.008,157.952,204.728,158.212,206.849z"/>
						<path style="fill:#FFFFFF;" d="M154.842,210.69c0.816,0,1.54-0.257,2.109-0.691l-0.358-1.199
							c-0.136-0.456-0.573-0.789-1.037-0.789h-0.457l-0.061-0.497c0.472-0.252,0.755-0.814,0.674-1.471
							c-0.109-0.891-0.842-1.613-1.638-1.613c-0.796,0-1.352,0.722-1.243,1.613c0.081,0.657,0.501,1.219,1.035,1.471l0.061,0.497
							h-0.457c-0.463,0-0.819,0.333-0.843,0.789l-0.064,1.199C153.238,210.433,154.025,210.69,154.842,210.69z"/>
					</g>
					<g>
						<g>
							<path style="fill:#FFFFFF;" d="M160.947,206.12c5.035,0,10.069,0,15.104,0c0.694,0,0.563-1.079-0.132-1.079
								c-5.035,0-10.069,0-15.104,0C160.121,205.041,160.252,206.12,160.947,206.12L160.947,206.12z"/>
						</g>
					</g>
					<g>
						<g>
							<path style="fill:#FFFFFF;" d="M161.258,208.657c6.633,0,13.266,0,19.898,0c0.463,0,0.375-0.719-0.088-0.719
								c-6.633,0-13.266,0-19.898,0C160.707,207.938,160.795,208.657,161.258,208.657L161.258,208.657z"/>
						</g>
						<path style="fill:#263238;" d="M184.9,208.297c0.057,0.468-0.275,0.847-0.743,0.847c-0.468,0-0.893-0.379-0.951-0.847
							c-0.057-0.468,0.275-0.847,0.743-0.847S184.843,207.83,184.9,208.297z"/>
						<path style="opacity:0.5;fill:#FFFFFF;" d="M184.9,208.297c0.057,0.468-0.275,0.847-0.743,0.847
							c-0.468,0-0.893-0.379-0.951-0.847c-0.057-0.468,0.275-0.847,0.743-0.847S184.843,207.83,184.9,208.297z"/>
					</g>
				</g>
				<g>
					<polygon style="fill:#407BFF;" points="147.286,192.521 147.662,196.82 223.443,196.82 223.067,192.521 					"/>
					<g>
						<path style="fill:#FFFFFF;" d="M150.766,194.432c0.042,0.479-0.312,0.867-0.791,0.867c-0.479,0-0.901-0.388-0.943-0.867
							c-0.042-0.479,0.312-0.867,0.791-0.867C150.302,193.565,150.724,193.954,150.766,194.432z"/>
						<path style="fill:#FFFFFF;" d="M153.051,194.432c0.042,0.479-0.312,0.867-0.791,0.867c-0.479,0-0.901-0.388-0.943-0.867
							c-0.042-0.479,0.312-0.867,0.791-0.867C152.587,193.565,153.009,193.954,153.051,194.432z"/>
						<path style="fill:#FFFFFF;" d="M155.336,194.432c0.042,0.479-0.312,0.867-0.791,0.867c-0.479,0-0.901-0.388-0.943-0.867
							c-0.042-0.479,0.312-0.867,0.791-0.867C154.872,193.565,155.294,193.954,155.336,194.432z"/>
					</g>
				</g>
			</g>
			<g>
				<path style="fill:#407BFF;" d="M232.592,252.72h-85.055c-1.001,0-1.812-0.811-1.812-1.812v-1.073
					c0-1.001,0.811-1.812,1.812-1.812h85.055c1.001,0,1.812,0.811,1.812,1.812v1.073C234.403,251.909,233.592,252.72,232.592,252.72
					z"/>
				<path style="opacity:0.3;" d="M232.592,252.72h-85.055c-1.001,0-1.812-0.811-1.812-1.812v-1.073
					c0-1.001,0.811-1.812,1.812-1.812h85.055c1.001,0,1.812,0.811,1.812,1.812v1.073C234.403,251.909,233.592,252.72,232.592,252.72
					z"/>
				<g>
					<path style="fill:#407BFF;" d="M263.793,252.72h-80.7c-2.001,0-3.624-1.622-3.624-3.624v-1.073h87.947v1.073
						C267.417,251.098,265.794,252.72,263.793,252.72z"/>
					<g>
						<path style="opacity:0.4;fill:#FFFFFF;" d="M263.793,252.72h-80.7c-2.001,0-3.624-1.622-3.624-3.624v-1.073h87.947v1.073
							C267.417,251.098,265.794,252.72,263.793,252.72z"/>
						<path style="opacity:0.3;" d="M219.105,248.148c0,1.297,1.051,2.348,2.348,2.348h10.757c1.297,0,2.348-1.051,2.348-2.348
							H219.105z"/>
					</g>
				</g>
			</g>
		</g>
		<g>
			<g>
				<g>
					<polygon style="fill:#407BFF;" points="227.27,240.667 151.553,240.667 151.144,235.992 226.861,235.992 					"/>
				</g>
				<g>
					<line style="fill:#263238;" x1="164.503" y1="238.417" x2="217.106" y2="238.417"/>
					<polygon style="fill:#FFFFFF;" points="217.124,238.625 164.521,238.625 164.485,238.209 217.088,238.209 					"/>
				</g>
				<g>
					<path style="fill:#FFFFFF;" d="M218.607,238.654c0.017,0.194-0.109,0.355-0.407,0.355c-0.156,0-0.318-0.047-0.426-0.128
						l0.073-0.16c0.086,0.066,0.21,0.109,0.335,0.109c0.147,0,0.228-0.065,0.219-0.169c-0.009-0.105-0.083-0.172-0.312-0.172h-0.267
						l0.004-0.602h0.65l0.015,0.172h-0.475l-0.001,0.256h0.105C218.446,238.316,218.59,238.458,218.607,238.654z"/>
					<path style="fill:#FFFFFF;" d="M218.685,238.271c-0.007-0.079,0.047-0.131,0.118-0.131c0.071,0,0.134,0.052,0.141,0.131
						c0.007,0.076-0.047,0.131-0.118,0.131C218.755,238.402,218.691,238.347,218.685,238.271z M218.737,238.873
						c-0.007-0.079,0.047-0.131,0.118-0.131c0.071,0,0.134,0.052,0.141,0.131c0.007,0.076-0.047,0.131-0.118,0.131
						C218.807,239.004,218.744,238.949,218.737,238.873z"/>
					<path style="fill:#FFFFFF;" d="M219.092,238.44c-0.032-0.363,0.149-0.569,0.411-0.569c0.264,0,0.481,0.205,0.513,0.569
						c0.032,0.363-0.149,0.569-0.413,0.569C219.34,239.009,219.123,238.804,219.092,238.44z M219.809,238.44
						c-0.023-0.267-0.139-0.39-0.29-0.39c-0.15,0-0.244,0.123-0.221,0.39c0.023,0.267,0.139,0.391,0.289,0.391
						C219.739,238.831,219.832,238.707,219.809,238.44z"/>
					<path style="fill:#FFFFFF;" d="M220.154,238.44c-0.032-0.363,0.149-0.569,0.412-0.569c0.264,0,0.481,0.205,0.513,0.569
						c0.032,0.363-0.149,0.569-0.413,0.569C220.403,239.009,220.186,238.804,220.154,238.44z M220.871,238.44
						c-0.023-0.267-0.139-0.39-0.29-0.39c-0.15,0-0.244,0.123-0.221,0.39c0.023,0.267,0.139,0.391,0.289,0.391
						C220.801,238.831,220.895,238.707,220.871,238.44z"/>
				</g>
				<g>
					<path style="fill:#FFFFFF;" d="M153.903,238.82l0.015,0.174h-0.815l-0.012-0.137l0.403-0.417
						c0.098-0.103,0.111-0.167,0.106-0.229c-0.009-0.101-0.083-0.16-0.219-0.16c-0.107,0-0.194,0.036-0.249,0.115l-0.154-0.111
						c0.075-0.115,0.223-0.183,0.405-0.183c0.24,0,0.405,0.122,0.423,0.318c0.009,0.107-0.012,0.206-0.153,0.349l-0.271,0.282
						H153.903z"/>
					<path style="fill:#FFFFFF;" d="M153.967,238.271c-0.007-0.079,0.047-0.131,0.118-0.131c0.071,0,0.134,0.052,0.141,0.131
						c0.007,0.076-0.047,0.131-0.118,0.131C154.036,238.402,153.973,238.347,153.967,238.271z M154.019,238.873
						c-0.007-0.079,0.047-0.131,0.118-0.131c0.071,0,0.134,0.052,0.141,0.131c0.007,0.076-0.047,0.131-0.118,0.131
						C154.089,239.004,154.026,238.949,154.019,238.873z"/>
					<path style="fill:#FFFFFF;" d="M155.196,238.654c0.017,0.194-0.11,0.355-0.407,0.355c-0.156,0-0.318-0.047-0.426-0.128
						l0.073-0.16c0.086,0.066,0.21,0.109,0.335,0.109c0.147,0,0.228-0.065,0.219-0.169c-0.009-0.105-0.083-0.172-0.312-0.172h-0.267
						l0.004-0.602h0.649l0.015,0.172h-0.475l-0.001,0.256h0.105C155.035,238.316,155.179,238.458,155.196,238.654z"/>
					<path style="fill:#FFFFFF;" d="M155.295,238.44c-0.032-0.363,0.149-0.569,0.411-0.569c0.264,0,0.481,0.205,0.513,0.569
						c0.032,0.363-0.149,0.569-0.413,0.569C155.544,239.009,155.327,238.804,155.295,238.44z M156.012,238.44
						c-0.023-0.267-0.139-0.39-0.29-0.39c-0.15,0-0.244,0.123-0.221,0.39c0.023,0.267,0.139,0.391,0.289,0.391
						C155.942,238.831,156.035,238.707,156.012,238.44z"/>
				</g>
				<g>
					<path style="fill:#FFFFFF;" d="M225.783,240.086h-3.338l-0.292-3.338h3.338L225.783,240.086z M222.951,239.532h2.23
						l-0.195-2.23h-2.23L222.951,239.532z"/>
				</g>
				<g>
					<polygon style="fill:#263238;" points="187.349,237.841 157.277,237.841 157.378,238.994 187.45,238.994 					"/>
				</g>
				<g>
					<path style="fill:#263238;" d="M188.453,238.38c0.051,0.584-0.381,1.057-0.964,1.057c-0.584,0-1.098-0.473-1.149-1.057
						c-0.051-0.584,0.381-1.057,0.964-1.057C187.888,237.323,188.402,237.796,188.453,238.38z"/>
				</g>
			</g>
			<path style="fill:#FFFFFF;" d="M188.453,238.38c0.051,0.584-0.381,1.057-0.964,1.057c-0.584,0-1.098-0.473-1.149-1.057
				c-0.051-0.584,0.381-1.057,0.964-1.057C187.888,237.323,188.402,237.796,188.453,238.38z"/>
		</g>
	</g>
	<g>
		<g>
			<g>
				<path style="fill:#EEC8C0;" d="M217.359,163.854c0,0,8.302,0.893,12.402,9.671c4.1,8.778,7.368,21.528,10.443,22.861
					c3.075,1.333,16.502-11.889,16.502-11.889s-2.733-8.746,1.367-10.113c4.1-1.367,3.28-7.49,7.106-6.205
					c3.827,1.285,6.013,6.752,5.74,9.758c-0.273,3.006-7.38,9.84-7.38,9.84s-12.847,22.867-25.966,20.773
					s-20.214-32.737-20.214-32.737S213.669,163.375,217.359,163.854z"/>
				<path style="opacity:0.1;" d="M221,187.072c2.876,7.758,5.249,13.369,10.721,18.344c-5.926-9.511-5.28-26.539-5.28-26.539
					L221,187.072z"/>
			</g>
			<path style="fill:#407BFF;" d="M172.408,166.561c5.193-1.475,9.922-2.536,14.253-3.296l0.162,0.137l0.248,0.242l2.112,1.611
				l5.734,3.455l4.714,0.741l4.56-1.111l2.92-4.065l0.534-2.332l0.004-0.071c7.332,0.49,12.156,2.077,14.88,3.33
				c1.694,0.779,2.811,2.437,2.919,4.299c0.16,2.765,0.641,7.856,2.038,16.099c1.901,11.218-3.916,36.33-6.171,45.379
				c-0.51,2.046-2.229,3.55-4.319,3.825c-17.905,2.36-32.009,1.17-38.85,0.247c-2.511-0.339-4.404-2.447-4.433-4.981
				c-0.16-14.375-3.672-46.472-4.985-58.024C168.446,169.566,170.006,167.242,172.408,166.561z"/>
			<path style="fill:#263238;" d="M172.408,166.561c5.193-1.475,9.922-2.536,14.253-3.296l0.162,0.137l0.248,0.242l2.112,1.611
				l5.734,3.455l4.714,0.741l4.56-1.111l2.92-4.065l0.534-2.332l0.004-0.071c7.332,0.49,12.156,2.077,14.88,3.33
				c1.694,0.779,2.811,2.437,2.919,4.299c0.16,2.765,0.641,7.856,2.038,16.099c1.901,11.218-3.916,36.33-6.171,45.379
				c-0.51,2.046-2.229,3.55-4.319,3.825c-17.905,2.36-32.009,1.17-38.85,0.247c-2.511-0.339-4.404-2.447-4.433-4.981
				c-0.16-14.375-3.672-46.472-4.985-58.024C168.446,169.566,170.006,167.242,172.408,166.561z"/>
			<path style="fill:#263238;" d="M187.082,126.004c-1.875,5.434-4.975,11.357-3.643,16.949c1.332,5.592,7.394,10.775,12.848,12.591
				c6.337,2.111,13.706,4.387,18.392-0.373c2.317-2.354,0.99-7.091-1.156-9.602c-2.147-2.511-5.949-3.445-9.014-2.214
				c0.52-2.678,0.053-5.9-0.535-8.563c-0.797-3.607-2.73-7.104-5.868-9.055C194.968,123.786,188.286,122.512,187.082,126.004z"/>
			<path style="fill:#EEC8C0;" d="M189.08,162.859c3.71-3.896,2.225-21.402,2.225-21.402l10.852,7.377
				c0,0,0.645,10.826,3.237,12.916c0.606,0.489,1.502,0.075,2.23,0.124l-0.659,2.753l-2.02,3.425l-2.787,1.976h-4.107l-3.689-1.054
				l-4.215-2.942l-3.435-2.768C187.506,163.124,188.545,163.421,189.08,162.859z"/>
			<path style="opacity:0.1;" d="M203.109,156.079c-7.137-0.813-10.422-4.516-11.907-7.448l0.304-2.925l10.852,7.377
				L203.109,156.079z"/>
			<path style="fill:#EEC8C0;" d="M187.053,134.472c2.286,9.017,3.067,12.869,8.559,16.668c8.265,5.727,18.835,0.934,19.29-8.572
				c0.395-8.566-3.426-21.914-13.04-23.792c-6.859-1.413-13.565,3.002-14.978,9.861
				C186.486,130.569,186.544,132.567,187.053,134.472z"/>
			<path style="fill:#263238;" d="M202.038,134.098c0.149,0.74,0.656,1.27,1.136,1.184c0.48-0.086,0.767-0.776,0.632-1.516
				c-0.135-0.74-0.657-1.27-1.136-1.184C202.191,132.667,201.944,133.386,202.038,134.098z"/>
			<path style="fill:#263238;" d="M210.426,132.523c0.148,0.754,0.656,1.27,1.136,1.184c0.48-0.086,0.767-0.776,0.632-1.516
				c-0.135-0.74-0.656-1.269-1.136-1.17C210.578,131.12,210.291,131.783,210.426,132.523z"/>
			<path style="fill:#263238;" d="M210.851,131.098l1.683-0.853C212.534,130.245,211.888,131.816,210.851,131.098z"/>
			<path style="fill:#ED893E;" d="M208.095,134.359c0.987,1.568,2.184,2.994,3.558,4.237c-0.669,0.687-1.602,1.051-2.56,0.998
				L208.095,134.359z"/>
			<path style="fill:#263238;" d="M198.346,133.053c0.194-0.002,0.364-0.132,0.416-0.319c0.583-1.34,1.697-2.376,3.076-2.858
				c0.235-0.079,0.362-0.332,0.285-0.568c-0.076-0.229-0.323-0.353-0.552-0.277c-0.005,0.001-0.01,0.004-0.015,0.005
				c-1.662,0.568-2.994,1.831-3.648,3.461c-0.065,0.232,0.07,0.474,0.303,0.539h0.001C198.253,133.054,198.3,133.06,198.346,133.053
				z"/>
			<path style="fill:#263238;" d="M212.208,128.177c0.162-0.006,0.308-0.096,0.387-0.238c0.115-0.216,0.035-0.485-0.179-0.604
				c-1.249-0.738-2.783-0.805-4.092-0.18c-0.21,0.103-0.296,0.357-0.193,0.567c0.005,0.01,0.011,0.021,0.016,0.031
				c0.114,0.213,0.379,0.293,0.591,0.179c0.002-0.001,0.004-0.002,0.006-0.003l0,0c1.037-0.451,2.227-0.381,3.204,0.189
				C212.028,128.163,212.118,128.184,212.208,128.177z"/>
			<path style="fill:#263238;" d="M202.462,132.741l1.683-0.853C204.145,131.889,203.5,133.404,202.462,132.741z"/>
			<g>
				<path style="fill:#263238;" d="M215.759,116.782c2.433,1.829,3.619,4.854,2.884,7.505c-0.346,1.247-1.076,2.414-1.13,3.706
					c-0.054,1.292,0.957,2.812,2.437,2.796c-2.047,0.226-4.169,0.447-6.173-0.088s-3.866-2.047-3.939-3.86
					c-0.027-0.673,0.188-1.328,0.228-1.999c0.04-0.671-0.145-1.425-0.771-1.839c-1.106-0.731-2.576,0.055-3.916,0.231
					c-2.449,0.322-4.872-1.946-4.568-4.096C201.116,116.987,207.031,110.219,215.759,116.782z"/>
			</g>
			<path style="fill:#263238;" d="M206.682,113.682c3.274,1.809,12.071,10.879-11.648,9.391c0,0,0.047,14.827-7.41,16.839
				l-19.512-3.219C168.113,136.694,175.87,96.66,206.682,113.682z"/>
			<path style="fill:#263238;" d="M170.691,127.69c-1.875,5.434-4.975,11.357-3.643,16.949c1.332,5.592,7.394,10.775,12.848,12.591
				c6.337,2.11,13.706,4.387,18.392-0.373c2.317-2.354,0.99-7.091-1.156-9.602c-2.147-2.511-5.948-3.445-9.014-2.214
				c0.52-2.678,0.053-5.9-0.535-8.563c-0.797-3.607-2.73-7.104-5.867-9.055C178.578,125.472,171.896,124.198,170.691,127.69z"/>
			<path style="fill:#EEC8C0;" d="M185.903,141.957c0.883,1.524,2.332,2.638,4.032,3.1c2.268,0.579,3.361-1.46,2.695-3.59
				c-0.616-1.911-2.528-4.516-4.788-4.194c-1.634,0.286-2.726,1.842-2.44,3.476C185.479,141.184,185.649,141.596,185.903,141.957z"
				/>
			<g>
				<path style="fill:#263238;" d="M209.874,142.182c0,0-3.152,1.708-7.39,0c0,0-0.299,4.548,5.093,4.174
					c0.577-0.04,2.296-0.293,2.296-0.293S209.421,144.206,209.874,142.182z"/>
				<path style="fill:#FFFFFF;" d="M202.724,143.746c-0.282-0.843-0.241-1.564-0.241-1.564c2.628,1.059,4.835,0.804,6.135,0.457
					v1.489C208.619,144.129,205.052,144.757,202.724,143.746z"/>
				<path style="fill:#C13B37;" d="M203.228,144.754c0.385-0.047,0.78-0.076,1.187-0.076c1.954,0,3.676,0.583,4.818,1.477
					c-0.551,0.077-1.308,0.178-1.656,0.202C205.168,146.523,203.899,145.707,203.228,144.754z"/>
			</g>
			<path style="fill:#407BFF;" d="M209.7,161.872c0,0-2.542-0.858-3.559,0c0,0,0.185,6.589-5.13,7.421
				c-5.315,0.832-13.491-6.378-13.491-6.378s-1.531-0.508-3.565,0.555l20.915,22.793C213.26,177.438,209.7,161.872,209.7,161.872z"
				/>
			<g>
				<path style="fill:#EEC8C0;" d="M171.411,188.343c-2.027-2.737-6.131-14.079-1.634-20.239
					c4.496-6.16,31.636,30.923,31.636,30.923c4.577-2.271,25.843-9.402,25.843-9.402s0.711-7.424,3.839-9.232
					c3.128-1.809,4.57-6.573,7.235-3.754c2.665,2.819,5.776,10.636,1.678,13.599c-4.098,2.962-8.212,5.225-8.212,5.225
					s-16.371,11.533-28.257,15.524C191.653,214.978,179.81,199.684,171.411,188.343z"/>
				<path style="opacity:0.1;fill:#FFFFFF;" d="M171.411,188.343c-2.027-2.737-6.131-14.079-1.634-20.239
					c4.496-6.16,31.636,30.923,31.636,30.923c4.577-2.271,25.843-9.402,25.843-9.402s0.711-7.424,3.839-9.232
					c3.128-1.809,4.57-6.573,7.235-3.754c2.665,2.819,5.776,10.636,1.678,13.599c-4.098,2.962-8.212,5.225-8.212,5.225
					s-16.371,11.533-28.257,15.524C191.653,214.978,179.81,199.684,171.411,188.343z"/>
			</g>
			<path style="opacity:0.1;fill:#FFFFFF;" d="M171.411,188.343c-2.027-2.737-6.131-14.079-1.634-20.239
				c4.496-6.16,31.636,30.923,31.636,30.923c4.577-2.271,25.843-9.402,25.843-9.402s0.711-7.424,3.839-9.232
				c3.128-1.809,4.57-6.573,7.235-3.754c2.665,2.819,5.776,10.636,1.678,13.599c-4.098,2.962-8.212,5.225-8.212,5.225
				s-16.371,11.533-28.257,15.524C191.653,214.978,179.81,199.684,171.411,188.343z"/>
			<path style="fill:#263238;" d="M222.594,237.075l-1.28-6.096c0,0-33.258,3.448-47.441,0.286l-1.856,5.81H222.594z"/>
		</g>
		<path style="fill:#FFFFFF;" d="M189.826,146.751c0,0.996-0.808,1.803-1.804,1.803s-1.803-0.807-1.803-1.803
			s0.807-1.803,1.803-1.803S189.826,145.755,189.826,146.751z"/>
	</g>
</g>
<g id="Character_2">
	<g>
		<g>
			<g>
				<g>
					<g>
						<g>
							<g id="Character_2_">
								<g>
									<path style="fill:#A02724;" d="M302.223,162.281c-1.019,2.174-2.324,4.202-3.881,6.03c1.188,1.234,3.399,0.773,3.399,0.773
										L302.223,162.281z"/>
									<path style="fill:#FF8B7B;" d="M327.342,173.603l-6.651,4.948l-9.078,6.745c0.478,1.04,0.759,2.16,0.83,3.302
										c0.282,2.526,0.573,4.395-5.052,5.86c-1.219,0.272-2.168,1.232-2.426,2.454c-0.241,1.488,0.643,3.299,5.805,4.262
										c5.001,0.821,10.134,0.022,14.65-2.279c2.208-1.065,2.227-2.381,1.339-4.619
										C324.088,187.91,325.542,179.86,327.342,173.603z"/>
									<path style="fill:#263238;" d="M300.457,161.579c-0.197,0.784-0.026,1.503,0.381,1.605
										c0.407,0.102,0.896-0.451,1.092-1.235c0.197-0.784,0.026-1.503-0.381-1.605
										C301.143,160.241,300.653,160.795,300.457,161.579z"/>
									<path style="fill:#263238;" d="M306.363,160.403c-0.173,0-0.342-0.09-0.434-0.251c-0.813-1.419-2.393-2.36-4.027-2.396
										c-0.275-0.006-0.494-0.235-0.488-0.511c0.006-0.272,0.229-0.489,0.5-0.489c0.004,0,0.008,0,0.011,0
										c1.978,0.044,3.89,1.183,4.872,2.899c0.138,0.24,0.055,0.545-0.186,0.683C306.533,160.382,306.448,160.403,306.363,160.403
										z"/>
									<path style="fill:#FF8B7B;" d="M300.414,172.64c0.47,4.758,3.181,8.71,6.826,10.972c1.299,0.806,2.709,1.397,4.191,1.73
										c3.418,0.764,7.138,0.153,10.43-2.331c5.788-4.38,6.456-10.315,8.468-20.269c0.423-2.015,0.399-4.1-0.061-6.101
										c-1.768-7.599-9.349-12.323-16.953-10.57C302.948,148.545,299.512,163.267,300.414,172.64z"/>
									<path style="opacity:0.2;" d="M307.24,183.612c1.299,0.806,2.709,1.397,4.191,1.73l0.182-0.042l-0.637-2.019
										C310.976,183.282,310.124,184.767,307.24,183.612z"/>
									<g>
										<path style="fill:#263238;" d="M333.227,169.895c-1.678,3.436-3.758,6.876-6.928,9.009
											c-1.173,0.794-10.048,0.206-10.048,0.206c0.085-3.02-3.731-13.405-5.575-16.892c-0.571,1.427,0.239,3.393-0.491,4.71
											c-0.983-0.19-18.786-6.591-10.944-19.383c5.535-9.029,20.403-9.817,26.564-0.913c2.607-0.824,5.554,0.252,7.43,2.222
											c1.885,1.983,2.781,4.72,3.032,7.431C336.693,160.974,335.288,165.661,333.227,169.895z"/>
									</g>
								</g>
							</g>
						</g>
					</g>
				</g>
				<path style="fill:#FF8B7B;" d="M316.767,164.779c-0.185,2.279-1.205,4.41-2.864,5.984c-2.146,1.998-4.822-0.127-5.156-2.996
					c-0.295-2.572,0.953-6.332,3.56-7.23C314.914,159.64,316.983,161.96,316.767,164.779z"/>
			</g>
			<g>
				<g>
					<polygon style="fill:#FF8B7B;" points="230.764,389.534 221.546,385.006 228.36,362.571 239.581,368.835 					"/>
					<polygon style="opacity:0.2;enable-background:new    ;" points="242.002,362.667 230.194,355.857 225.514,372.03 
						236.169,377.049 					"/>
				</g>
				<g>
					<path style="fill:#263238;" d="M220.997,383.224l10.554,4.869c0.376,0.151,0.557,0.633,0.407,1.085l-3.452,10.256
						c-0.441,1.089-1.525,1.637-2.444,1.236c-3.641-1.768-5.307-2.828-9.945-4.969c-2.859-1.316-9.367-4.417-13.427-5.891
						c-4.06-1.474-2.381-6.235-0.518-6.048c8.368,0.885,13.29,0.692,16.928-0.585C219.735,382.947,220.403,382.963,220.997,383.224z
						"/>
					<g>
						<path style="fill:#407BFF;" d="M215.566,383.922c0.844,0.328,1.72,0.568,2.614,0.715c0.09,0.021,0.184-0.018,0.232-0.097
							c0.064-0.066,0.087-0.162,0.06-0.25c-0.21-0.343-2.128-3.3-3.469-3.345c-0.313-0.021-0.612,0.132-0.779,0.397
							c-0.313,0.37-0.404,0.879-0.239,1.335C214.343,383.271,214.905,383.714,215.566,383.922z M217.771,384.078
							c-1.83-0.442-3.069-0.964-3.32-1.596c-0.09-0.297-0.013-0.619,0.203-0.843c0.077-0.133,0.219-0.215,0.373-0.216
							C215.734,381.441,216.967,382.909,217.771,384.078z"/>
						<path style="fill:#407BFF;" d="M218.193,384.64c0,0,0.066,0.016,0.105,0.026c0.084-0.011,0.157-0.06,0.199-0.133
							c0.029-0.118,1.43-2.747,0.858-4.07c-0.135-0.354-0.435-0.62-0.804-0.71c-0.392-0.156-0.84-0.022-1.081,0.324
							c-0.659,0.941-0.084,3.518,0.617,4.481C218.11,384.599,218.148,384.628,218.193,384.64z M218.529,380.249
							c0.179,0.075,0.32,0.22,0.391,0.401c0.135,1.132-0.097,2.277-0.663,3.267c-0.58-1.095-0.721-2.369-0.393-3.564
							c0.032-0.132,0.212-0.242,0.551-0.146L218.529,380.249z"/>
					</g>
				</g>
				<g>
					<g>
						<g>
							<g>
								<path style="fill:#407BFF;" d="M300.918,273.536c0,0-54.281-9.338-61.106,20.353c-5.278,20.79-7.827,29.249-14.53,75.347
									l14.327,3.238c0,0,23.097-47.22,24.445-67.301c16.203,2.734,53.06,10.415,60.917-3.296
									c3.929-6.972,6.555-14.602,7.75-22.516L300.918,273.536z"/>
							</g>
							<g style="opacity:0.3;">
								<path d="M300.918,273.536c0,0-54.281-9.338-61.106,20.353c-5.278,20.79-7.827,29.249-14.53,75.347l14.327,3.238
									c0,0,23.097-47.22,24.445-67.301c16.203,2.734,53.06,10.415,60.917-3.296c3.929-6.972,6.555-14.602,7.75-22.516
									L300.918,273.536z"/>
							</g>
						</g>
						<polygon style="fill:#407BFF;" points="241.438,375.661 223.085,369.238 224.806,360.931 243.635,368.578 						"/>
					</g>
					<g>
						<polygon style="fill:#FF8B7B;" points="192.768,386.215 183.09,380.844 192.709,362.245 204.641,367.103 						"/>
						<polygon style="opacity:0.2;enable-background:new    ;" points="207.974,361.376 197.343,352.844 190.25,368.114 
							200.015,374.7 						"/>
					</g>
					<g>
						<path style="fill:#263238;" d="M184.079,378.488l9.688,6.422c0.349,0.207,0.454,0.71,0.236,1.135l-4.976,9.609
							c-0.602,1.009-1.757,1.385-2.604,0.849c-3.329-2.302-4.814-3.605-9.07-6.427c-2.624-1.736-8.584-5.795-12.371-7.871
							c-3.787-2.076-1.402-6.525,0.411-6.056c8.135,2.151,13.029,2.711,16.819,2.005
							C182.874,378.022,183.532,378.14,184.079,378.488z"/>
						<g>
							<path style="fill:#407BFF;" d="M178.605,378.349c0.784,0.453,1.613,0.824,2.474,1.105c0.086,0.034,0.184,0.01,0.244-0.061
								c0.073-0.056,0.11-0.147,0.098-0.238c-0.155-0.371-1.6-3.586-2.918-3.835c-0.306-0.068-0.625,0.037-0.83,0.273
								c-0.366,0.318-0.534,0.808-0.44,1.283C177.495,377.52,177.983,378.043,178.605,378.349z M180.761,378.84
								c-1.741-0.716-2.886-1.421-3.038-2.084c-0.044-0.307,0.082-0.614,0.33-0.802c0.096-0.12,0.249-0.18,0.402-0.157
								C179.149,375.923,180.144,377.562,180.761,378.84z"/>
							<path style="fill:#407BFF;" d="M181.092,379.46c0,0,0.063,0.026,0.1,0.041c0.084,0.002,0.164-0.036,0.217-0.101
								c0.047-0.113,1.832-2.497,1.468-3.891c-0.079-0.371-0.336-0.679-0.686-0.824c-0.363-0.215-0.827-0.15-1.118,0.155
								c-0.795,0.83-0.619,3.464-0.074,4.523C181.016,379.406,181.05,379.441,181.092,379.46z M182.094,375.172
								c0.165,0.102,0.283,0.266,0.325,0.456c-0.039,1.139-0.444,2.236-1.154,3.127c-0.407-1.17-0.351-2.451,0.155-3.582
								c0.052-0.125,0.246-0.207,0.566-0.06L182.094,375.172z"/>
						</g>
					</g>
					<g>
						<g>
							<g>
								<path style="fill:#407BFF;" d="M283.809,270.649c-0.378-0.064-59.509-16.059-69.305,17.437
									c-13.442,40.777-23.416,75.381-23.416,75.381l11.604,8.409c0,0,29.585-40.94,33.979-69.011
									c18.478-2.083,62.639,14.107,70.493,0.407c6.431-11.204,6.735-27.546,6.735-27.546L283.809,270.649z"/>
								<path style="opacity:0.3;" d="M283.809,270.649c-0.378-0.064-59.509-16.059-69.305,17.437
									c-13.442,40.777-23.416,75.381-23.416,75.381l11.604,8.409c0,0,29.585-40.94,33.979-69.011
									c18.478-2.083,62.639,14.107,70.493,0.407c6.431-11.204,6.735-27.546,6.735-27.546L283.809,270.649z"/>
							</g>
							<polygon style="fill:#407BFF;" points="204.408,374.036 188.725,363.535 191.263,356.816 208.12,366.017 							"/>
						</g>
					</g>
					<g>
						<path style="fill:#407BFF;" d="M338.801,202.242c-1.035,4.025-2.211,7.95-3.523,11.898c-1.313,3.948-2.812,7.884-4.567,11.819
							c-1.788,4.114-4.002,8.029-6.608,11.681c-1.536,2.139-3.372,4.046-5.452,5.663c-1.284,0.983-2.699,1.783-4.204,2.377
							c-0.863,0.329-1.757,0.572-2.669,0.725l-0.729,0.115c-0.382,0.03-0.799,0.065-1.17,0.057c-0.628-0.01-1.254-0.081-1.868-0.212
							c-0.912-0.186-1.802-0.469-2.654-0.845c-0.673-0.291-1.327-0.624-1.957-0.998c-1.062-0.658-2.083-1.382-3.054-2.169
							c-1.745-1.369-8.087-11.396-12.594-18.349l5.37-4.486c5.818,5.276,11.73,10.695,17.649,15.32
							c1.522,1.081-4.894-3.243-3.463-2.332c0.639,0.404,1.306,0.762,1.996,1.071c0.565,0.266,1.123,0.391,0.966,0.294
							c-0.123-0.037-0.251-0.057-0.38-0.059c-0.143-0.011-0.287-0.007-0.43,0.011l0,0c0,0,0.107-0.044,0.211-0.106
							c0.333-0.194,0.646-0.421,0.933-0.678c1.005-0.941,1.893-1.999,2.645-3.152c1.889-2.973,3.485-6.122,4.765-9.404
							c1.452-3.488,2.648-7.037,3.798-10.693c1.151-3.657,2.221-7.37,3.184-11.144C325.96,194.87,339.836,198.217,338.801,202.242z"
							/>
						<path style="opacity:0.6;fill:#FFFFFF;" d="M338.801,202.242c-1.035,4.025-2.211,7.95-3.523,11.898
							c-1.313,3.948-2.812,7.884-4.567,11.819c-1.788,4.114-4.002,8.029-6.608,11.681c-1.536,2.139-3.372,4.046-5.452,5.663
							c-1.284,0.983-2.699,1.783-4.204,2.377c-0.863,0.329-1.757,0.572-2.669,0.725l-0.729,0.115
							c-0.382,0.03-0.799,0.065-1.17,0.057c-0.628-0.01-1.254-0.081-1.868-0.212c-0.912-0.186-1.802-0.469-2.654-0.845
							c-0.673-0.291-1.327-0.624-1.957-0.998c-1.062-0.658-2.083-1.382-3.054-2.169c-1.745-1.369-8.087-11.396-12.594-18.349
							l5.37-4.486c5.818,5.276,11.73,10.695,17.649,15.32c1.522,1.081-4.894-3.243-3.463-2.332c0.639,0.404,1.306,0.762,1.996,1.071
							c0.565,0.266,1.123,0.391,0.966,0.294c-0.123-0.037-0.251-0.057-0.38-0.059c-0.143-0.011-0.287-0.007-0.43,0.011l0,0
							c0,0,0.107-0.044,0.211-0.106c0.333-0.194,0.646-0.421,0.933-0.678c1.005-0.941,1.893-1.999,2.645-3.152
							c1.889-2.973,3.485-6.122,4.765-9.404c1.452-3.488,2.648-7.037,3.798-10.693c1.151-3.657,2.221-7.37,3.184-11.144
							C325.96,194.87,339.836,198.217,338.801,202.242z"/>
						<g>
							<path style="fill:#FF8B7B;" d="M293.524,220.117l-5.135-10.883l-9.749,5.57c0,0,6.311,10.102,9.856,9.104L293.524,220.117z"
								/>
							<path style="fill:#FF8B7B;" d="M280.432,206.655l-4.476,1.841c-1.125,0.463-1.431,1.913-0.59,2.791l3.315,3.458l9.749-5.57
								l-6.733-2.54C281.289,206.482,280.836,206.488,280.432,206.655z"/>
						</g>
					</g>
					<g>
						<g>
							<path style="fill:#FF8B7B;" d="M243.585,240.156l-10.504-1.28l-3.492,11.029c0,0,12.013,0.291,14.015-2.943L243.585,240.156z
								"/>
							<path style="fill:#FF8B7B;" d="M225.247,242.629l-1.963,4.193c-0.589,1.257,0.275,2.712,1.66,2.797l4.644,0.285l3.492-11.029
								l-6.794,2.766C225.828,241.828,225.457,242.181,225.247,242.629z"/>
						</g>
					</g>
					<path style="fill:#407BFF;" d="M342.141,201.662c-0.473-2.439-4.1-5.409-6.565-5.825l-1.628-0.275
						c-2.844-0.48-6.426-0.849-9.934-1.027c-6.677-0.381-13.37-0.384-20.048-0.01c-3.09,0.281-6.112,0.785-8.526,1.251
						c-0.031,0.007-0.061,0.013-0.092,0.02c-2.818,0.604-4.854,3.052-4.94,5.934c-0.225,7.551-0.811,22.888-2.163,38.021
						c-1.055,11.807-3.385,23.317-4.436,31.324l48.919,8.254c3.299-9.279,4.441-17.665,7.492-34.911
						C342.05,234.063,344.092,211.697,342.141,201.662z"/>
					<path style="opacity:0.6;fill:#FFFFFF;" d="M342.141,201.662c-0.473-2.439-4.1-5.409-6.565-5.825l-1.628-0.275
						c-2.844-0.48-6.426-0.849-9.934-1.027c-6.677-0.381-13.37-0.384-20.048-0.01c-3.09,0.281-6.112,0.785-8.526,1.251
						c-0.031,0.007-0.061,0.013-0.092,0.02c-2.818,0.604-4.854,3.052-4.94,5.934c-0.225,7.551-0.811,22.888-2.163,38.021
						c-1.055,11.807-3.385,23.317-4.436,31.324l48.919,8.254c3.299-9.279,4.441-17.665,7.492-34.911
						C342.05,234.063,344.092,211.697,342.141,201.662z"/>
					<g>
						<g>
							<path style="fill:#407BFF;" d="M295.229,197.018c3.974,1.733,5.779,6.373,4.01,10.331
								c-4.011,8.973-10.697,23.189-13.581,28.167c-1.092,1.767-2.185,3.522-3.417,5.283c-0.616,0.886-1.302,1.764-2.033,2.666
								c-0.4,0.458-0.721,0.879-1.19,1.352l-0.67,0.702l-0.38,0.388c-1.067,0.992-2.341,1.735-3.729,2.177
								c-0.731,0.24-1.478,0.43-2.235,0.568c-1.235,0.201-2.484,0.302-3.735,0.303c-2.161,0.019-17.026,1.334-24.582-1.315
								l-0.395-8.171c7.555,0.601,20.75-3.491,22.447-3.672c0.683-0.082,1.359-0.218,2.02-0.408c0.216-0.06,0.424-0.146,0.618-0.258
								c0.07-0.003-0.003-0.081-0.309,0.129c-0.112,0.068-0.214,0.151-0.305,0.245c0,0,0.077-0.108,0.111-0.144l0.311-0.373
								c0.2-0.218,0.442-0.577,0.675-0.865c0.452-0.624,0.914-1.294,1.373-2.023c0.908-1.422,1.787-2.994,2.654-4.589
								c1.733-3.19,3.329-6.572,4.89-9.987c1.106-2.42,4.369-9.783,7.135-16.371C286.597,197.136,291.237,195.277,295.229,197.018
								L295.229,197.018z"/>
						</g>
						<path style="opacity:0.2;enable-background:new    ;" d="M288.597,228.789c0.144,4.467,0.08,3.018,0.247,7.708
							c13.06-18.066,9.692-30.616,9.692-30.616L288.597,228.789z"/>
						<path style="opacity:0.6;fill:#FFFFFF;" d="M295.229,197.018c3.974,1.733,5.779,6.373,4.01,10.331
							c-4.011,8.973-10.697,23.189-13.581,28.167c-1.092,1.767-2.185,3.522-3.417,5.283c-0.616,0.886-1.302,1.764-2.033,2.666
							c-0.4,0.458-0.721,0.879-1.19,1.352l-0.67,0.702l-0.38,0.388c-1.067,0.992-2.341,1.735-3.729,2.177
							c-0.731,0.24-1.478,0.43-2.235,0.568c-1.235,0.201-2.484,0.302-3.735,0.303c-2.161,0.019-17.026,1.334-24.582-1.315
							l-0.395-8.171c7.555,0.601,20.75-3.491,22.447-3.672c0.683-0.082,1.359-0.218,2.02-0.408c0.216-0.06,0.424-0.146,0.618-0.258
							c0.07-0.003-0.003-0.081-0.309,0.129c-0.112,0.068-0.214,0.151-0.305,0.245c0,0,0.077-0.108,0.111-0.144l0.311-0.373
							c0.2-0.218,0.442-0.577,0.675-0.865c0.452-0.624,0.914-1.294,1.373-2.023c0.908-1.422,1.787-2.994,2.654-4.589
							c1.733-3.19,3.329-6.572,4.89-9.987c1.106-2.42,4.369-9.783,7.135-16.371C286.597,197.136,291.237,195.277,295.229,197.018
							L295.229,197.018z"/>
					</g>
				</g>
			</g>
		</g>
		<g>
			<path style="fill:#FAB27B;" d="M309.923,161.967c-1.588,1.413-2.545,3.379-2.658,5.464c-0.129,2.767,2.561,3.516,4.899,2.218
				c2.119-1.175,4.711-4.027,3.73-6.556C314.912,160.563,311.884,160.26,309.923,161.967z"/>
			<path style="fill:#407BFF;" d="M318.818,166.321c-0.202,4.541-2.941,8.108-7.482,7.906c-4.541-0.202-6.953-3.997-6.751-8.538
				c0.202-4.541,2.941-8.108,7.482-7.906C316.607,157.985,319.02,161.78,318.818,166.321z"/>
			<path style="opacity:0.7;fill:#FFFFFF;" d="M318.818,166.321c-0.202,4.541-2.941,8.108-7.482,7.906
				c-4.541-0.202-6.953-3.997-6.751-8.538c0.202-4.541,2.941-8.108,7.482-7.906C316.607,157.985,319.02,161.78,318.818,166.321z"/>
			<path style="fill:#407BFF;" d="M316.727,166.228c-0.143,3.207-2.077,5.726-5.284,5.583c-3.207-0.143-4.91-2.823-4.768-6.03
				c0.143-3.207,2.077-5.726,5.284-5.583C315.166,160.341,316.87,163.021,316.727,166.228z"/>
			<path style="opacity:0.3;fill:#FFFFFF;" d="M316.727,166.228c-0.143,3.207-2.077,5.726-5.284,5.583
				c-3.207-0.143-4.91-2.823-4.768-6.03c0.143-3.207,2.077-5.726,5.284-5.583C315.166,160.341,316.87,163.021,316.727,166.228z"/>
			<g>
				<path style="fill:#407BFF;" d="M311.469,157.006c0.936-3.82,4.615-13.985,12.245-15.418c0.753-0.141,1.527,0.146,2.03,0.724
					l0.904,1.04c0.916,1.054,0.626,2.678-0.601,3.344c-3.045,1.653-8.105,5.209-10.701,11.534c-0.301,0.733-1.109,1.121-1.875,0.919
					l-0.852-0.224C311.777,158.703,311.262,157.851,311.469,157.006z"/>
				<path style="opacity:0.2;fill:#FFFFFF;" d="M311.469,157.006c0.936-3.82,4.615-13.985,12.245-15.418
					c0.753-0.141,1.527,0.146,2.03,0.724l0.904,1.04c0.916,1.054,0.626,2.678-0.601,3.344c-3.045,1.653-8.105,5.209-10.701,11.534
					c-0.301,0.733-1.109,1.121-1.875,0.919l-0.852-0.224C311.777,158.703,311.262,157.851,311.469,157.006z"/>
			</g>
		</g>
		<g>
			<rect x="251.261" y="268.753" style="fill:#263238;" width="6.501" height="27.736"/>
			<rect x="251.261" y="268.753" style="fill:#263238;" width="6.501" height="27.736"/>
		</g>
		<g>
			<path style="fill:#263238;" d="M276.59,277.219c-14.307-4.994-29.884-4.994-44.192,0c-2.97,1.12-6.309-0.153-7.78-2.965l0,0
				c-1.326-2.803,0.454-6.431,4.059-7.699c16.708-5.838,34.903-5.838,51.611,0c3.605,1.256,5.384,4.896,4.059,7.699l0,0
				C282.873,277.051,279.553,278.32,276.59,277.219z"/>
			<path style="opacity:0.4;fill:#263238;" d="M276.59,277.219c-14.307-4.994-29.884-4.994-44.192,0
				c-2.97,1.12-6.309-0.153-7.78-2.965l0,0c-1.326-2.803,0.454-6.431,4.059-7.699c16.708-5.838,34.903-5.838,51.611,0
				c3.605,1.256,5.384,4.896,4.059,7.699l0,0C282.873,277.051,279.553,278.32,276.59,277.219z"/>
		</g>
		<g>
			<g>
				<path style="fill:#263238;" d="M269.807,407.936c0,2.794-2.265,5.059-5.059,5.059c-2.794,0-5.059-2.265-5.059-5.059
					c0-2.794,2.265-5.059,5.059-5.059C267.542,402.877,269.807,405.142,269.807,407.936L269.807,407.936z"/>
				<path style="fill:#263238;" d="M344.105,407.936c0,2.794,2.265,5.059,5.059,5.059c2.794,0,5.059-2.265,5.059-5.059
					c0-2.794-2.265-5.059-5.059-5.059C346.37,402.877,344.105,405.142,344.105,407.936L344.105,407.936z"/>
				<path style="fill:#263238;" d="M300.286,406.318c0,2.794,2.265,5.059,5.059,5.059c2.794,0,5.059-2.265,5.059-5.059
					c0-2.794-2.265-5.059-5.059-5.059C302.55,401.26,300.286,403.525,300.286,406.318L300.286,406.318z"/>
			</g>
			<g>
				<path style="fill:#263238;" d="M360.185,401.143c-0.233,1.176-1.292,2.014-2.492,1.979l-52.757-0.722l-49.403,1.118
					c-1.199,0.035-2.259-0.803-2.48-1.979c-0.268-1.339,0.605-2.62,1.933-2.888l26.978-5.24c2.806-0.524,5.635-0.792,8.488-0.792
					h28.992c2.841,0,5.682,0.268,8.476,0.792l30.32,4.855C359.568,398.524,360.441,399.804,360.185,401.143z"/>
			</g>
			<g>
				<rect x="295.96" y="348.603" style="fill:#263238;" width="17.944" height="51.654"/>
				<rect x="298.541" y="315.875" style="fill:#263238;" width="12.792" height="32.981"/>
				<polygon style="opacity:0.2;enable-background:new    ;" points="298.541,321.992 311.334,325.213 311.334,315.875 
					298.541,315.875 				"/>
			</g>
			<g>
				<path style="fill:#407BFF;" d="M299.792,292.411v23.32h-68.098c-4.619,0.011-8.368-3.738-8.38-8.357
					c0-1.513,0.407-2.981,1.174-4.28c3.919-6.618,11.022-10.683,18.713-10.683H299.792z"/>
				<path style="opacity:0.2;fill:#FFFFFF;" d="M299.792,292.411v23.32h-68.098c-4.619,0.011-8.368-3.738-8.38-8.357
					c0-1.513,0.407-2.981,1.174-4.28c3.919-6.618,11.022-10.683,18.713-10.683H299.792z"/>
			</g>
			<g>
				<g>
					<path style="fill:#407BFF;" d="M313.495,206.048c-0.166,0.757-0.275,1.513-0.329,2.281l-7.484,107.026h-10.333l7.484-107.026
						c0.006-0.079,0.012-0.169,0.029-0.248L313.495,206.048z"/>
					<path style="opacity:0.2;fill:#FFFFFF;" d="M313.495,206.048c-0.166,0.757-0.275,1.513-0.329,2.281l-7.484,107.026h-10.333
						l7.484-107.026c0.006-0.079,0.012-0.169,0.029-0.248L313.495,206.048z"/>
					<path style="fill:#263238;" d="M360.996,315.747v0.124h-1.739C359.855,315.871,360.42,315.826,360.996,315.747z"/>
					<path style="fill:#407BFF;" d="M384.012,205.37l0.121-12.716c0.036-3.591-1.217-6.99-3.519-9.588l-7.516-8.47l-2.686-21.186
						c-0.413-3.298-3.138-5.68-6.503-5.68h-18.668c-3.004,0-5.814,1.909-6.984,4.755l-9.409,22.79l-15.56,9.181
						c-3.981,2.349-6.841,6.268-7.806,10.695l-2.838,12.976l0.218-0.045l10.634-2.033c-0.166,0.757-0.275,1.513-0.329,2.281
						l-7.484,107.026h58.567c0.599,0,1.166-0.045,1.748-0.124h0.011c5.898-0.847,10.733-5.884,11.157-11.948l6.705-95.89
						c0.048-0.689,0.051-1.378,0.009-2.067L384.012,205.37z M335.057,197.284l-18.213,1.728l-0.796,0.079l2.521-8.278l12.515-5.839
						l4.168-1.942l0.655,1.942l0.112,0.328l0.609,1.784L335.057,197.284z M370.841,197.499h-0.011l-2.23-0.576
						c-0.041-0.7-0.081-1.423-0.122-2.135c-0.231-3.964-0.421-7.702-0.421-7.702l0.272-1.31l0.565-2.744l8.073,7.781l-0.005,1.852
						l-0.009,6.426L370.841,197.499z"/>
				</g>
			</g>
		</g>
	</g>
</g>
</svg>
